<svg width="184" height="33" viewBox="0 0 184 33" fill="none" xmlns="http://www.w3.org/2000/svg">
<path d="M10 27C8.63333 27 7.34167 26.7375 6.125 26.2125C4.90833 25.6875 3.84583 24.9708 2.9375 24.0625C2.02917 23.1542 1.3125 22.0917 0.7875 20.875C0.2625 19.6583 0 18.3667 0 17C0 15.6167 0.270833 14.3167 0.8125 13.1C1.35417 11.8833 2.0875 10.825 3.0125 9.925C3.9375 9.025 5.01667 8.3125 6.25 7.7875C7.48333 7.2625 8.8 7 10.2 7C11.5333 7 12.7917 7.22917 13.975 7.6875C15.1583 8.14583 16.1958 8.77917 17.0875 9.5875C17.9792 10.3958 18.6875 11.3542 19.2125 12.4625C19.7375 13.5708 20 14.7667 20 16.05C20 17.9667 19.4167 19.4375 18.25 20.4625C17.0833 21.4875 15.6667 22 14 22H12.15C12 22 11.8958 22.0417 11.8375 22.125C11.7792 22.2083 11.75 22.3 11.75 22.4C11.75 22.6 11.875 22.8875 12.125 23.2625C12.375 23.6375 12.5 24.0667 12.5 24.55C12.5 25.3833 12.2708 26 11.8125 26.4C11.3542 26.8 10.75 27 10 27ZM4.5 18C4.93333 18 5.29167 17.8583 5.575 17.575C5.85833 17.2917 6 16.9333 6 16.5C6 16.0667 5.85833 15.7083 5.575 15.425C5.29167 15.1417 4.93333 15 4.5 15C4.06667 15 3.70833 15.1417 3.425 15.425C3.14167 15.7083 3 16.0667 3 16.5C3 16.9333 3.14167 17.2917 3.425 17.575C3.70833 17.8583 4.06667 18 4.5 18ZM7.5 14C7.93333 14 8.29167 13.8583 8.575 13.575C8.85833 13.2917 9 12.9333 9 12.5C9 12.0667 8.85833 11.7083 8.575 11.425C8.29167 11.1417 7.93333 11 7.5 11C7.06667 11 6.70833 11.1417 6.425 11.425C6.14167 11.7083 6 12.0667 6 12.5C6 12.9333 6.14167 13.2917 6.425 13.575C6.70833 13.8583 7.06667 14 7.5 14ZM12.5 14C12.9333 14 13.2917 13.8583 13.575 13.575C13.8583 13.2917 14 12.9333 14 12.5C14 12.0667 13.8583 11.7083 13.575 11.425C13.2917 11.1417 12.9333 11 12.5 11C12.0667 11 11.7083 11.1417 11.425 11.425C11.1417 11.7083 11 12.0667 11 12.5C11 12.9333 11.1417 13.2917 11.425 13.575C11.7083 13.8583 12.0667 14 12.5 14ZM15.5 18C15.9333 18 16.2917 17.8583 16.575 17.575C16.8583 17.2917 17 16.9333 17 16.5C17 16.0667 16.8583 15.7083 16.575 15.425C16.2917 15.1417 15.9333 15 15.5 15C15.0667 15 14.7083 15.1417 14.425 15.425C14.1417 15.7083 14 16.0667 14 16.5C14 16.9333 14.1417 17.2917 14.425 17.575C14.7083 17.8583 15.0667 18 15.5 18ZM10 25C10.15 25 10.2708 24.9583 10.3625 24.875C10.4542 24.7917 10.5 24.6833 10.5 24.55C10.5 24.3167 10.375 24.0417 10.125 23.725C9.875 23.4083 9.75 22.9333 9.75 22.3C9.75 21.6 9.99167 21.0417 10.475 20.625C10.9583 20.2083 11.55 20 12.25 20H14C15.1 20 16.0417 19.6792 16.825 19.0375C17.6083 18.3958 18 17.4 18 16.05C18 14.0333 17.2292 12.3542 15.6875 11.0125C14.1458 9.67083 12.3167 9 10.2 9C7.93333 9 6 9.775 4.4 11.325C2.8 12.875 2 14.7667 2 17C2 19.2167 2.77917 21.1042 4.3375 22.6625C5.89583 24.2208 7.78333 25 10 25Z" fill="black"/>
<path d="M39.0898 26L36.9805 20.5625H30.1133L28.0156 26H26L32.7031 8.79688H34.4961L41.1523 26H39.0898ZM36.3828 18.793L34.3789 13.3906C34.332 13.25 34.2539 13.0195 34.1445 12.6992C34.043 12.3789 33.9375 12.0469 33.8281 11.7031C33.7188 11.3594 33.6289 11.082 33.5586 10.8711C33.4805 11.1914 33.3945 11.5117 33.3008 11.832C33.2148 12.1445 33.1289 12.4375 33.043 12.7109C32.957 12.9766 32.8828 13.2031 32.8203 13.3906L30.7812 18.793H36.3828ZM50.5602 8.86719C51.9664 8.86719 53.1266 9.04297 54.0406 9.39453C54.9625 9.73828 55.65 10.2656 56.1031 10.9766C56.5562 11.6875 56.7828 12.5938 56.7828 13.6953C56.7828 14.6016 56.6187 15.3594 56.2906 15.9688C55.9625 16.5703 55.5328 17.0586 55.0016 17.4336C54.4703 17.8086 53.9039 18.0977 53.3023 18.3008L58.0016 26H55.6812L51.4859 18.8516H47.9234V26H45.9312V8.86719H50.5602ZM50.443 10.5898H47.9234V17.1641H50.6422C52.0406 17.1641 53.068 16.8789 53.7242 16.3086C54.3883 15.7383 54.7203 14.8984 54.7203 13.7891C54.7203 12.625 54.3687 11.8008 53.6656 11.3164C52.9703 10.832 51.8961 10.5898 50.443 10.5898ZM68.4055 26H66.4016V10.625H61.0109V8.86719H73.7727V10.625H68.4055V26ZM94.7211 17.0234H100.709V25.332C99.8109 25.6367 98.8852 25.8633 97.932 26.0117C96.9867 26.1602 95.9281 26.2344 94.7562 26.2344C92.975 26.2344 91.4711 25.8789 90.2445 25.168C89.0258 24.457 88.1 23.4453 87.4672 22.1328C86.8344 20.8125 86.518 19.2461 86.518 17.4336C86.518 15.6602 86.8656 14.1133 87.5609 12.793C88.2641 11.4727 89.2758 10.4492 90.5961 9.72266C91.9242 8.98828 93.518 8.62109 95.3773 8.62109C96.3305 8.62109 97.2328 8.71094 98.0844 8.89062C98.9437 9.0625 99.7406 9.30859 100.475 9.62891L99.7133 11.3633C99.0805 11.0898 98.3812 10.8555 97.6156 10.6602C96.8578 10.4648 96.0727 10.3672 95.2602 10.3672C93.8617 10.3672 92.6625 10.6562 91.6625 11.2344C90.6703 11.8125 89.9086 12.6289 89.3773 13.6836C88.8539 14.7383 88.5922 15.9883 88.5922 17.4336C88.5922 18.8633 88.8227 20.1094 89.2836 21.1719C89.7445 22.2266 90.4633 23.0469 91.4398 23.6328C92.4164 24.2188 93.6742 24.5117 95.2133 24.5117C95.9867 24.5117 96.6508 24.4688 97.2055 24.3828C97.7602 24.2891 98.2641 24.1797 98.7172 24.0547V18.8047H94.7211V17.0234ZM116.797 26H107.258V8.86719H116.797V10.625H109.25V16.168H116.363V17.9023H109.25V24.2422H116.797V26ZM136.388 26H134.091L124.752 11.6094H124.658C124.681 11.9922 124.709 12.4297 124.74 12.9219C124.771 13.4062 124.795 13.9258 124.81 14.4805C124.834 15.0273 124.845 15.5859 124.845 16.1562V26H122.994V8.86719H125.279L134.584 23.2109H134.666C134.65 22.9375 134.63 22.5508 134.607 22.0508C134.584 21.543 134.56 21 134.537 20.4219C134.521 19.8359 134.513 19.293 134.513 18.793V8.86719H136.388V26ZM143.464 26V8.86719H145.456V26H143.464ZM165.528 8.86719V19.9531C165.528 21.1641 165.282 22.2422 164.79 23.1875C164.305 24.1328 163.571 24.8789 162.587 25.4258C161.602 25.9648 160.368 26.2344 158.884 26.2344C156.766 26.2344 155.153 25.6602 154.044 24.5117C152.942 23.3633 152.391 21.8281 152.391 19.9062V8.86719H154.395V19.9648C154.395 21.418 154.778 22.5391 155.544 23.3281C156.317 24.1172 157.47 24.5117 159.001 24.5117C160.048 24.5117 160.903 24.3242 161.567 23.9492C162.239 23.5664 162.735 23.0352 163.055 22.3555C163.384 21.668 163.548 20.875 163.548 19.9766V8.86719H165.528ZM182.143 21.4414C182.143 22.457 181.889 23.3242 181.381 24.043C180.881 24.7539 180.178 25.2969 179.272 25.6719C178.366 26.0469 177.299 26.2344 176.073 26.2344C175.424 26.2344 174.811 26.2031 174.233 26.1406C173.655 26.0781 173.123 25.9883 172.639 25.8711C172.155 25.7539 171.729 25.6094 171.362 25.4375V23.5273C171.948 23.7695 172.663 23.9961 173.506 24.207C174.35 24.4102 175.233 24.5117 176.155 24.5117C177.014 24.5117 177.741 24.3984 178.334 24.1719C178.928 23.9375 179.377 23.6055 179.682 23.1758C179.995 22.7383 180.151 22.2148 180.151 21.6055C180.151 21.0195 180.022 20.5312 179.764 20.1406C179.506 19.7422 179.077 19.3828 178.475 19.0625C177.881 18.7344 177.069 18.3867 176.038 18.0195C175.311 17.7617 174.67 17.4805 174.116 17.1758C173.561 16.8633 173.096 16.5117 172.721 16.1211C172.346 15.7305 172.061 15.2773 171.866 14.7617C171.678 14.2461 171.584 13.6562 171.584 12.9922C171.584 12.0781 171.815 11.2969 172.276 10.6484C172.745 9.99219 173.389 9.49219 174.209 9.14844C175.038 8.79688 175.987 8.62109 177.057 8.62109C177.971 8.62109 178.815 8.70703 179.588 8.87891C180.37 9.05078 181.084 9.28125 181.733 9.57031L181.112 11.2812C180.495 11.0234 179.838 10.8086 179.143 10.6367C178.455 10.4648 177.745 10.3789 177.01 10.3789C176.276 10.3789 175.655 10.4883 175.147 10.707C174.647 10.918 174.264 11.2188 173.998 11.6094C173.733 12 173.6 12.4648 173.6 13.0039C173.6 13.6055 173.725 14.1055 173.975 14.5039C174.233 14.9023 174.639 15.2578 175.194 15.5703C175.756 15.875 176.498 16.1953 177.42 16.5312C178.428 16.8984 179.284 17.2891 179.987 17.7031C180.69 18.1094 181.225 18.6094 181.592 19.2031C181.959 19.7891 182.143 20.5352 182.143 21.4414Z" fill="black"/>
</svg>
