<svg width="311" height="54" viewBox="0 0 311 54" fill="none" xmlns="http://www.w3.org/2000/svg">
<path d="M20 47C17.2667 47 14.6833 46.475 12.25 45.425C9.81667 44.375 7.69167 42.9417 5.875 41.125C4.05833 39.3083 2.625 37.1833 1.575 34.75C0.525 32.3167 0 29.7333 0 27C0 24.2333 0.541667 21.6333 1.625 19.2C2.70833 16.7667 4.175 14.65 6.025 12.85C7.875 11.05 10.0333 9.625 12.5 8.575C14.9667 7.525 17.6 7 20.4 7C23.0667 7 25.5833 7.45833 27.95 8.375C30.3167 9.29167 32.3917 10.5583 34.175 12.175C35.9583 13.7917 37.375 15.7083 38.425 17.925C39.475 20.1417 40 22.5333 40 25.1C40 28.9333 38.8333 31.875 36.5 33.925C34.1667 35.975 31.3333 37 28 37H24.3C24 37 23.7917 37.0833 23.675 37.25C23.5583 37.4167 23.5 37.6 23.5 37.8C23.5 38.2 23.75 38.775 24.25 39.525C24.75 40.275 25 41.1333 25 42.1C25 43.7667 24.5417 45 23.625 45.8C22.7083 46.6 21.5 47 20 47ZM9 29C9.86667 29 10.5833 28.7167 11.15 28.15C11.7167 27.5833 12 26.8667 12 26C12 25.1333 11.7167 24.4167 11.15 23.85C10.5833 23.2833 9.86667 23 9 23C8.13333 23 7.41667 23.2833 6.85 23.85C6.28333 24.4167 6 25.1333 6 26C6 26.8667 6.28333 27.5833 6.85 28.15C7.41667 28.7167 8.13333 29 9 29ZM15 21C15.8667 21 16.5833 20.7167 17.15 20.15C17.7167 19.5833 18 18.8667 18 18C18 17.1333 17.7167 16.4167 17.15 15.85C16.5833 15.2833 15.8667 15 15 15C14.1333 15 13.4167 15.2833 12.85 15.85C12.2833 16.4167 12 17.1333 12 18C12 18.8667 12.2833 19.5833 12.85 20.15C13.4167 20.7167 14.1333 21 15 21ZM25 21C25.8667 21 26.5833 20.7167 27.15 20.15C27.7167 19.5833 28 18.8667 28 18C28 17.1333 27.7167 16.4167 27.15 15.85C26.5833 15.2833 25.8667 15 25 15C24.1333 15 23.4167 15.2833 22.85 15.85C22.2833 16.4167 22 17.1333 22 18C22 18.8667 22.2833 19.5833 22.85 20.15C23.4167 20.7167 24.1333 21 25 21ZM31 29C31.8667 29 32.5833 28.7167 33.15 28.15C33.7167 27.5833 34 26.8667 34 26C34 25.1333 33.7167 24.4167 33.15 23.85C32.5833 23.2833 31.8667 23 31 23C30.1333 23 29.4167 23.2833 28.85 23.85C28.2833 24.4167 28 25.1333 28 26C28 26.8667 28.2833 27.5833 28.85 28.15C29.4167 28.7167 30.1333 29 31 29ZM20 43C20.3 43 20.5417 42.9167 20.725 42.75C20.9083 42.5833 21 42.3667 21 42.1C21 41.6333 20.75 41.0833 20.25 40.45C19.75 39.8167 19.5 38.8667 19.5 37.6C19.5 36.2 19.9833 35.0833 20.95 34.25C21.9167 33.4167 23.1 33 24.5 33H28C30.2 33 32.0833 32.3583 33.65 31.075C35.2167 29.7917 36 27.8 36 25.1C36 21.0667 34.4583 17.7083 31.375 15.025C28.2917 12.3417 24.6333 11 20.4 11C15.8667 11 12 12.55 8.8 15.65C5.6 18.75 4 22.5333 4 27C4 31.4333 5.55833 35.2083 8.675 38.325C11.7917 41.4417 15.5667 43 20 43Z" fill="black"/>
<path d="M69.8164 43L66.3008 33.9375H54.8555L51.3594 43H48L59.1719 14.3281H62.1602L73.2539 43H69.8164ZM65.3047 30.9883L61.9648 21.9844C61.8867 21.75 61.7565 21.3659 61.5742 20.832C61.4049 20.2982 61.2292 19.7448 61.0469 19.1719C60.8646 18.599 60.7148 18.1367 60.5977 17.7852C60.4674 18.319 60.3242 18.8529 60.168 19.3867C60.0247 19.9076 59.8815 20.3958 59.7383 20.8516C59.5951 21.2943 59.4714 21.6719 59.3672 21.9844L55.9688 30.9883H65.3047ZM88.9336 14.4453C91.2773 14.4453 93.2109 14.7383 94.7344 15.3242C96.2708 15.8971 97.4167 16.776 98.1719 17.9609C98.9271 19.1458 99.3047 20.6562 99.3047 22.4922C99.3047 24.0026 99.0312 25.2656 98.4844 26.2812C97.9375 27.2839 97.2214 28.0977 96.3359 28.7227C95.4505 29.3477 94.5065 29.8294 93.5039 30.168L101.336 43H97.4688L90.4766 31.0859H84.5391V43H81.2188V14.4453H88.9336ZM88.7383 17.3164H84.5391V28.2734H89.0703C91.401 28.2734 93.1133 27.7982 94.207 26.8477C95.3138 25.8971 95.8672 24.4974 95.8672 22.6484C95.8672 20.7083 95.2812 19.3346 94.1094 18.5273C92.9505 17.7201 91.1602 17.3164 88.7383 17.3164ZM118.676 43H115.336V17.375H106.352V14.4453H127.621V17.375H118.676V43ZM162.535 28.0391H172.516V41.8867C171.018 42.3945 169.475 42.7721 167.887 43.0195C166.311 43.2669 164.547 43.3906 162.594 43.3906C159.625 43.3906 157.118 42.7982 155.074 41.6133C153.043 40.4284 151.5 38.7422 150.445 36.5547C149.391 34.3542 148.863 31.7435 148.863 28.7227C148.863 25.7669 149.443 23.1888 150.602 20.9883C151.773 18.7878 153.46 17.082 155.66 15.8711C157.874 14.6471 160.53 14.0352 163.629 14.0352C165.217 14.0352 166.721 14.1849 168.141 14.4844C169.573 14.7708 170.901 15.181 172.125 15.7148L170.855 18.6055C169.801 18.1497 168.635 17.7591 167.359 17.4336C166.096 17.1081 164.788 16.9453 163.434 16.9453C161.103 16.9453 159.104 17.4271 157.438 18.3906C155.784 19.3542 154.514 20.7148 153.629 22.4727C152.757 24.2305 152.32 26.3138 152.32 28.7227C152.32 31.1055 152.704 33.1823 153.473 34.9531C154.241 36.7109 155.439 38.0781 157.066 39.0547C158.694 40.0312 160.79 40.5195 163.355 40.5195C164.645 40.5195 165.751 40.4479 166.676 40.3047C167.6 40.1484 168.44 39.9661 169.195 39.7578V31.0078H162.535V28.0391ZM199.328 43H183.43V14.4453H199.328V17.375H186.75V26.6133H198.605V29.5039H186.75V40.0703H199.328V43ZM231.98 43H228.152L212.586 19.0156H212.43C212.469 19.6536 212.514 20.3828 212.566 21.2031C212.618 22.0104 212.658 22.8763 212.684 23.8008C212.723 24.7122 212.742 25.6432 212.742 26.5938V43H209.656V14.4453H213.465L228.973 38.3516H229.109C229.083 37.8958 229.051 37.2513 229.012 36.418C228.973 35.5716 228.934 34.6667 228.895 33.7031C228.868 32.7266 228.855 31.8216 228.855 30.9883V14.4453H231.98V43ZM243.773 43V14.4453H247.094V43H243.773ZM280.547 14.4453V32.9219C280.547 34.9401 280.137 36.737 279.316 38.3125C278.509 39.888 277.285 41.1315 275.645 42.043C274.004 42.9414 271.947 43.3906 269.473 43.3906C265.944 43.3906 263.255 42.4336 261.406 40.5195C259.57 38.6055 258.652 36.0469 258.652 32.8438V14.4453H261.992V32.9414C261.992 35.3633 262.63 37.2318 263.906 38.5469C265.195 39.862 267.116 40.5195 269.668 40.5195C271.413 40.5195 272.839 40.207 273.945 39.582C275.065 38.944 275.892 38.0586 276.426 36.9258C276.973 35.7799 277.246 34.4583 277.246 32.9609V14.4453H280.547ZM308.238 35.4023C308.238 37.0951 307.815 38.5404 306.969 39.7383C306.135 40.9232 304.964 41.8281 303.453 42.4531C301.943 43.0781 300.165 43.3906 298.121 43.3906C297.04 43.3906 296.018 43.3385 295.055 43.2344C294.091 43.1302 293.206 42.9805 292.398 42.7852C291.591 42.5898 290.882 42.349 290.27 42.0625V38.8789C291.246 39.2826 292.438 39.6602 293.844 40.0117C295.25 40.3503 296.721 40.5195 298.258 40.5195C299.69 40.5195 300.901 40.3307 301.891 39.9531C302.88 39.5625 303.629 39.0091 304.137 38.293C304.658 37.5638 304.918 36.6914 304.918 35.6758C304.918 34.6992 304.703 33.8854 304.273 33.2344C303.844 32.5703 303.128 31.9714 302.125 31.4375C301.135 30.8906 299.781 30.3112 298.062 29.6992C296.852 29.2695 295.784 28.8008 294.859 28.293C293.935 27.7721 293.16 27.1862 292.535 26.5352C291.91 25.8841 291.435 25.1289 291.109 24.2695C290.797 23.4102 290.641 22.4271 290.641 21.3203C290.641 19.7969 291.025 18.4948 291.793 17.4141C292.574 16.3203 293.648 15.487 295.016 14.9141C296.396 14.3281 297.978 14.0352 299.762 14.0352C301.285 14.0352 302.691 14.1784 303.98 14.4648C305.283 14.7513 306.474 15.1354 307.555 15.6172L306.52 18.4688C305.491 18.0391 304.397 17.681 303.238 17.3945C302.092 17.1081 300.908 16.9648 299.684 16.9648C298.46 16.9648 297.424 17.1471 296.578 17.5117C295.745 17.8633 295.107 18.3646 294.664 19.0156C294.221 19.6667 294 20.4414 294 21.3398C294 22.3424 294.208 23.1758 294.625 23.8398C295.055 24.5039 295.732 25.0964 296.656 25.6172C297.594 26.125 298.831 26.6589 300.367 27.2188C302.047 27.8307 303.473 28.4818 304.645 29.1719C305.816 29.849 306.708 30.6823 307.32 31.6719C307.932 32.6484 308.238 33.8919 308.238 35.4023Z" fill="black"/>
</svg>
