<svg width="24" height="24" viewBox="0 0 24 24" fill="none" xmlns="http://www.w3.org/2000/svg">
<path d="M22 12C22 17.065 18.24 21.25 13.355 21.905V14.5H14.6C15.34 14.5 15.97 13.96 16.085 13.23L16.35 11.52H13.355V10.585C13.355 9.495 13.71 8.525 14.73 8.525H15.375C15.925 8.525 16.375 8.075 16.375 7.525V6.23C16.085 6.19 15.475 6.105 14.32 6.105C11.915 6.105 10.505 7.375 10.505 10.275V11.52H9.53C8.7 11.52 8.03 12.19 8.03 13.02V14.5H10.505V21.89C5.69 21.165 2 17.015 2 12C2 6.475 6.475 2 12 2C17.525 2 22 6.475 22 12Z" fill="black"/>
</svg>
