<svg width="24" height="24" viewBox="0 0 24 24" fill="none" xmlns="http://www.w3.org/2000/svg">
<path d="M8 3C5.243 3 3 5.243 3 8V16C3 18.757 5.243 21 8 21H16C18.757 21 21 18.757 21 16V8C21 5.243 18.757 3 16 3H8ZM17.25 5.5C17.94 5.5 18.5 6.06 18.5 6.75C18.5 7.44 17.94 8 17.25 8C16.56 8 16 7.44 16 6.75C16 6.06 16.56 5.5 17.25 5.5ZM12 7C14.757 7 17 9.243 17 12C17 14.757 14.757 17 12 17C9.243 17 7 14.757 7 12C7 9.243 9.243 7 12 7ZM12 9.5C11.337 9.5 10.7011 9.76339 10.2322 10.2322C9.76339 10.7011 9.5 11.337 9.5 12C9.5 12.663 9.76339 13.2989 10.2322 13.7678C10.7011 14.2366 11.337 14.5 12 14.5C12.663 14.5 13.2989 14.2366 13.7678 13.7678C14.2366 13.2989 14.5 12.663 14.5 12C14.5 11.337 14.2366 10.7011 13.7678 10.2322C13.2989 9.76339 12.663 9.5 12 9.5Z" fill="black"/>
</svg>
